<?xml version="1.0" standalone="no"?>
<!DOCTYPE svg PUBLIC "-//W3C//DTD SVG 20010904//EN"
 "http://www.w3.org/TR/2001/REC-SVG-20010904/DTD/svg10.dtd">
<svg version="1.0" xmlns="http://www.w3.org/2000/svg"
 width="133.000000pt" height="133.000000pt" viewBox="0 0 133.000000 133.000000"
 preserveAspectRatio="xMidYMid meet">

<g transform="translate(0.000000,133.000000) scale(0.100000,-0.100000)"
fill="#000000" stroke="none">
<path d="M367 1324 c-4 -4 -7 -77 -7 -162 0 -138 2 -158 20 -187 11 -18 27
-36 35 -39 11 -4 13 -11 5 -31 -13 -35 3 -72 41 -93 l31 -17 -6 -77 c-9 -124
-79 -358 -107 -358 -20 0 -89 -74 -99 -106 -6 -19 -18 -34 -26 -34 -7 0 -28
-13 -46 -29 -32 -28 -33 -32 -33 -108 l0 -78 490 0 490 0 0 78 c0 76 -1 80
-33 108 -18 16 -39 29 -46 29 -8 0 -20 15 -26 34 -10 32 -79 106 -99 106 -28
0 -98 234 -107 358 l-6 77 31 17 c38 21 54 58 41 93 -8 20 -6 27 5 31 8 3 24
21 35 39 19 30 20 47 18 192 l-3 158 -70 0 -70 0 -5 -80 c-5 -77 -6 -80 -30
-80 -24 0 -25 3 -30 80 l-5 80 -90 0 -90 0 -5 -80 c-5 -77 -6 -80 -30 -80 -24
0 -25 3 -30 80 l-5 80 -65 3 c-36 2 -69 0 -73 -4z m95 -131 l3 -78 75 0 75 0
3 78 3 77 44 0 44 0 3 -77 3 -78 75 0 75 0 3 78 c3 74 4 77 27 77 l25 0 0
-109 c0 -116 -11 -166 -40 -181 -24 -13 -406 -13 -430 0 -29 15 -40 65 -40
181 l0 109 25 0 c23 0 24 -3 27 -77z m396 -307 c2 -10 -2 -22 -10 -27 -15 -10
-338 -12 -362 -3 -16 6 -22 35 -9 48 4 3 90 5 192 4 173 -3 186 -4 189 -22z
m-70 -183 c13 -111 32 -191 66 -275 l24 -58 -213 0 -213 0 24 58 c34 84 53
164 66 275 l11 97 112 0 112 0 11 -97z m134 -393 c37 -11 78 -51 78 -76 0 -11
-25 -14 -119 -14 -99 0 -120 -3 -125 -16 -3 -9 -4 -20 0 -25 3 -5 71 -9 152
-9 175 0 192 -6 192 -73 l0 -42 -435 0 -435 0 0 42 c0 67 17 73 192 73 81 0
149 4 152 9 4 5 3 16 0 25 -5 13 -26 16 -125 16 -94 0 -119 3 -119 14 0 24 40
66 73 75 44 13 473 13 519 1z"/>
<path d="M644 205 c-4 -9 -2 -21 4 -27 15 -15 44 -1 40 19 -4 23 -36 29 -44 8z"/>
</g>
</svg>
